<?xml version="1.0" encoding="utf-8"?>
<!-- Generator: Adobe Illustrator 19.0.0, SVG Export Plug-In . SVG Version: 6.00 Build 0)  -->
<svg version="1.1" id="圖層_1" xmlns="http://www.w3.org/2000/svg" xmlns:xlink="http://www.w3.org/1999/xlink" x="0px" y="0px"
	 viewBox="-223 25 512 512" style="enable-background:new -223 25 512 512;" xml:space="preserve">
<style type="text/css">
	.st0{fill:#565656;}
</style>
<path class="st0" d="M33,529c-137,0-248-111-248-248S-104,33,33,33s248,111,248,248S170,529,33,529z M61.9,385.4L-13.6,313H169
	c13.3,0,24-10.7,24-24v-16c0-13.3-10.7-24-24-24H-13.6l75.5-72.4c9.7-9.3,9.9-24.8,0.4-34.3l-11-10.9c-9.4-9.4-24.6-9.4-33.9,0
	L-115.3,264c-9.4,9.4-9.4,24.6,0,33.9L17.4,430.6c9.4,9.4,24.6,9.4,33.9,0l11-10.9C71.8,410.2,71.6,394.7,61.9,385.4z"/>
</svg>
