<?xml version="1.0" encoding="utf-8"?>
<!-- Generator: Adobe Illustrator 19.0.0, SVG Export Plug-In . SVG Version: 6.00 Build 0)  -->
<svg version="1.1" id="圖層_1" xmlns="http://www.w3.org/2000/svg" xmlns:xlink="http://www.w3.org/1999/xlink" x="0px" y="0px"
	 viewBox="-223 25 512 512" style="enable-background:new -223 25 512 512;" xml:space="preserve">
<style type="text/css">
	.st0{fill:#565656;}
</style>
<path class="st0" d="M33,529c-137,0-248-111-248-248S-104,33,33,33s248,111,248,248S170,529,33,529z M149,237H33v-70.9
	c0-10.7-13-16.1-20.5-8.5l-114.3,114.9c-4.7,4.7-4.7,12.2,0,16.9L12.5,404.3c7.6,7.6,20.5,2.2,20.5-8.5V325h116c6.6,0,12-5.4,12-12
	v-64C161,242.4,155.6,237,149,237z"/>
</svg>
