<?xml version="1.0" encoding="utf-8"?>
<!-- Generator: Adobe Illustrator 19.0.0, SVG Export Plug-In . SVG Version: 6.00 Build 0)  -->
<svg version="1.1" id="圖層_1" xmlns="http://www.w3.org/2000/svg" xmlns:xlink="http://www.w3.org/1999/xlink" x="0px" y="0px"
	 viewBox="-191 25 576 512" style="enable-background:new -191 25 576 512;" xml:space="preserve">
<style type="text/css">
	.st0{fill:#C6C6C6;}
</style>
<path class="st0" d="M361,89h-464c-13.3,0-24,10.7-24,24v8h-40c-13.3,0-24,10.7-24,24v272c0,30.9,25.1,56,56,56h472
	c26.5,0,48-21.5,48-48V113C385,99.7,374.3,89,361,89z M-135,425c-4.4,0-8-3.6-8-8V169h16v248C-127,421.4-130.6,425-135,425z
	 M101,409H-51c-6.6,0-12-5.4-12-12v-8c0-6.6,5.4-12,12-12h152c6.6,0,12,5.4,12,12v8C113,403.6,107.6,409,101,409z M309,409H157
	c-6.6,0-12-5.4-12-12v-8c0-6.6,5.4-12,12-12h152c6.6,0,12,5.4,12,12v8C321,403.6,315.6,409,309,409z M101,313H-51
	c-6.6,0-12-5.4-12-12v-8c0-6.6,5.4-12,12-12h152c6.6,0,12,5.4,12,12v8C113,307.6,107.6,313,101,313z M309,313H157
	c-6.6,0-12-5.4-12-12v-8c0-6.6,5.4-12,12-12h152c6.6,0,12,5.4,12,12v8C321,307.6,315.6,313,309,313z M309,217H-51
	c-6.6,0-12-5.4-12-12v-40c0-6.6,5.4-12,12-12h360c6.6,0,12,5.4,12,12v40C321,211.6,315.6,217,309,217z"/>
</svg>
