<?xml version="1.0" encoding="UTF-8"?>
<svg width="23px" height="23px" viewBox="0 0 23 23" version="1.1" xmlns="http://www.w3.org/2000/svg" xmlns:xlink="http://www.w3.org/1999/xlink">
    <!-- Generator: Sketch 47.1 (45422) - http://www.bohemiancoding.com/sketch -->
    <title>icon_member</title>
    <desc>Created with Sketch.</desc>
    <defs></defs>
    <g id="首頁" stroke="none" stroke-width="1" fill="none" fill-rule="evenodd">
        <g transform="translate(-1200.000000, -21.000000)" id="icon_member" fill="#FFFFFF">
            <path d="M1211.5,21 C1205.152,21 1200,26.152 1200,32.5 C1200,38.848 1205.152,44 1211.5,44 C1217.848,44 1223,38.848 1223,32.5 C1223,26.152 1217.848,21 1211.5,21 L1211.5,21 Z M1211.5,24.45 C1213.409,24.45 1214.95,25.991 1214.95,27.9 C1214.95,29.809 1213.409,31.35 1211.5,31.35 C1209.591,31.35 1208.05,29.809 1208.05,27.9 C1208.05,25.991 1209.591,24.45 1211.5,24.45 L1211.5,24.45 Z M1211.5,40.55 C1208.625,40.55 1206.0835,39.1480952 1204.6,37.0233333 C1204.6345,34.8438095 1209.2,33.65 1211.5,33.65 C1213.7885,33.65 1218.3655,34.8438095 1218.4,37.0233333 C1216.9165,39.1480952 1214.375,40.55 1211.5,40.55 L1211.5,40.55 Z"></path>
        </g>
    </g>
</svg>