<?xml version="1.0" encoding="UTF-8" standalone="no"?>
<svg width="25px" height="22px" viewBox="0 0 25 22" version="1.1" xmlns="http://www.w3.org/2000/svg" xmlns:xlink="http://www.w3.org/1999/xlink">
    <!-- Generator: Sketch 46.2 (44496) - http://www.bohemiancoding.com/sketch -->
    <title>icon_stock</title>
    <desc>Created with Sketch.</desc>
    <defs></defs>
    <g id="最新消息" stroke="none" stroke-width="1" fill="none" fill-rule="evenodd">
        <g transform="translate(-1379.000000, -21.000000)" id="icon_stock" fill="#FFFFFF">
            <g transform="translate(1379.000000, 21.000000)">
                <polygon id="Fill-1" points="19.39264 21.94352 24.86952 21.94352 24.86952 6.63264 19.39264 6.63264"></polygon>
                <polygon id="Fill-2" points="11.70448 21.95736 17.1832 21.95736 17.1832 11.76672 11.70448 11.76672"></polygon>
                <path d="M9.612384,3.980328 C10.813664,5.226248 11.977904,6.433688 13.178624,7.678968 C15.212944,5.731848 17.238624,3.792888 19.331504,1.789768 C18.736144,1.247688 18.153184,0.716888 17.570144,0.186008 C17.598624,0.150648 17.627184,0.115368 17.655664,0.080008 L22.135824,0.080008 L22.135824,4.496168 C21.638784,3.995368 21.113184,3.465928 20.557984,2.906488 C18.029264,5.327608 15.598784,7.654728 13.133264,10.015368 C11.958224,8.796728 10.796704,7.592008 9.599104,6.349928 C6.768624,9.225848 3.951104,12.088648 1.136704,14.948088 C0.755984001,14.544728 0.393664001,14.160808 -1.59993876e-05,13.743608 L9.612384,3.980328 Z" id="Fill-3"></path>
                <polygon id="Fill-6" points="4.02976 21.94888 9.5116 21.94888 9.5116 14.20736 4.02976 14.20736"></polygon>
            </g>
        </g>
    </g>
</svg>