<?xml version="1.0" encoding="UTF-8"?>
<svg width="21px" height="23px" viewBox="0 0 21 23" version="1.1" xmlns="http://www.w3.org/2000/svg" xmlns:xlink="http://www.w3.org/1999/xlink">
    <!-- Generator: Sketch 47.1 (45422) - http://www.bohemiancoding.com/sketch -->
    <title>Shape</title>
    <desc>Created with Sketch.</desc>
    <defs></defs>
    <g id="首頁" stroke="none" stroke-width="1" fill="none" fill-rule="evenodd">
        <g transform="translate(-1291.000000, -20.000000)" id="Shape" fill="#FFFFFF">
            <path d="M1293.21053,29.8571429 L1293.21053,37.5238095 L1296.52632,37.5238095 L1296.52632,29.8571429 L1293.21053,29.8571429 L1293.21053,29.8571429 Z M1299.84211,29.8571429 L1299.84211,37.5238095 L1303.15789,37.5238095 L1303.15789,29.8571429 L1299.84211,29.8571429 L1299.84211,29.8571429 Z M1291,43 L1312,43 L1312,39.7142857 L1291,39.7142857 L1291,43 L1291,43 Z M1306.47368,29.8571429 L1306.47368,37.5238095 L1309.78947,37.5238095 L1309.78947,29.8571429 L1306.47368,29.8571429 L1306.47368,29.8571429 Z M1301.5,20 L1291,25.4761905 L1291,27.6666667 L1312,27.6666667 L1312,25.4761905 L1301.5,20 L1301.5,20 Z"></path>
        </g>
    </g>
</svg>