<?xml version="1.0" encoding="UTF-8"?>
<svg width="23px" height="21px" viewBox="0 0 23 21" version="1.1" xmlns="http://www.w3.org/2000/svg" xmlns:xlink="http://www.w3.org/1999/xlink">
    <!-- Generator: Sketch 47.1 (45422) - http://www.bohemiancoding.com/sketch -->
    <title>Shape</title>
    <desc>Created with Sketch.</desc>
    <defs></defs>
    <g id="首頁" stroke="none" stroke-width="1" fill="none" fill-rule="evenodd">
        <g transform="translate(-1381.000000, -25.000000)" id="Shape" fill="#FFFFFF">
            <path d="M1393.40955,38.7235 L1390.75409,36.088 L1390.78545,36.0565 C1392.60455,34.0195 1393.90091,31.678 1394.66409,29.2 L1397.72727,29.2 L1397.72727,27.1 L1390.40909,27.1 L1390.40909,25 L1388.31818,25 L1388.31818,27.1 L1381,27.1 L1381,29.1895 L1392.67773,29.1895 C1391.97727,31.216 1390.86909,33.1375 1389.36364,34.8175 C1388.39136,33.736 1387.58636,32.5495 1386.94864,31.3 L1384.85773,31.3 C1385.62091,33.0115 1386.66636,34.6285 1387.97318,36.088 L1382.65182,41.359 L1384.13636,42.85 L1389.36364,37.6 L1392.615,40.8655 L1393.40955,38.7235 L1393.40955,38.7235 Z M1399.29545,33.4 L1397.20455,33.4 L1392.5,46 L1394.59091,46 L1395.76182,42.85 L1400.72773,42.85 L1401.90909,46 L1404,46 L1399.29545,33.4 L1399.29545,33.4 Z M1396.55636,40.75 L1398.25,36.2035 L1399.94364,40.75 L1396.55636,40.75 L1396.55636,40.75 Z"></path>
        </g>
    </g>
</svg>